<svg xmlns="http://www.w3.org/2000/svg" width="189.5" height="174" viewBox="0 0 189.5 174">
    <defs>
        <style>
            .cls-11,.cls-8{fill:none}.cls-11{stroke:#263238}.cls-9{fill:#fff}.cls-11,.cls-8{stroke-miterlimit:10}.cls-3{fill:#ff5252}.cls-4{opacity:.1}.cls-5{fill:#263238}.cls-7{fill:#91b3fa}.cls-8{stroke:#91b3fa}.cls-10{fill:#180d89}
        </style>
    </defs>
    <g id="Group_2581" data-name="Group 2581" transform="translate(19077.133 282.5)">
        <g id="Floor" transform="translate(-19076.633 -109)">
            <path id="Line_1" data-name="Line 1" style="stroke-linecap:round;stroke-linejoin:round;stroke:#263238;fill:none" d="M0 0h186.827"/>
        </g>
        <g id="Process_bar" data-name="Process bar" transform="translate(-19029.871 -173.855)">
            <g id="Group_46" data-name="Group 46">
                <g id="Group_44" data-name="Group 44">
                    <path id="Rectangle_33" data-name="Rectangle 33" style="stroke-width:.75px;stroke-miterlimit:10;fill:#fff;stroke:#263238" d="M0 0h93.316v5.893H0z"/>
                    <path id="Rectangle_34" data-name="Rectangle 34" class="cls-3" transform="translate(1.135 1.04)" d="M0 0h60.377v3.813H0z"/>
                    <g id="Group_43" data-name="Group 43" transform="translate(1.137 1.04)">
                        <path id="Path_53" data-name="Path 53" class="cls-4" d="M153.132 284.31h-3.126l-2.945 3.812h3.126z" transform="translate(-147.06 -284.31)"/>
                        <path id="Path_54" data-name="Path 54" class="cls-4" d="M166.776 284.31h-3.126l-2.95 3.812h3.126z" transform="translate(-154.668 -284.31)"/>
                        <path id="Path_55" data-name="Path 55" class="cls-4" d="M180.426 284.31H177.3l-2.95 3.812h3.126z" transform="translate(-162.282 -284.31)"/>
                        <path id="Path_56" data-name="Path 56" class="cls-4" d="M194.066 284.31h-3.126l-2.95 3.812h3.126z" transform="translate(-169.89 -284.31)"/>
                        <path id="Path_57" data-name="Path 57" class="cls-4" d="M207.716 284.31h-3.126l-2.95 3.812h3.126z" transform="translate(-177.504 -284.31)"/>
                        <path id="Path_58" data-name="Path 58" class="cls-4" d="M221.362 284.31h-3.122l-2.95 3.812h3.126z" transform="translate(-185.118 -284.31)"/>
                        <path id="Path_59" data-name="Path 59" class="cls-4" d="M235.006 284.31h-3.126l-2.95 3.812h3.126z" transform="translate(-192.726 -284.31)"/>
                        <path id="Path_60" data-name="Path 60" class="cls-4" d="M248.656 284.31h-3.126l-2.95 3.812h3.126z" transform="translate(-200.34 -284.31)"/>
                        <path id="Path_61" data-name="Path 61" class="cls-4" d="M262.3 284.31h-3.126l-2.945 3.812h3.126z" transform="translate(-207.954 -284.31)"/>
                        <path id="Path_62" data-name="Path 62" class="cls-4" d="M275.937 284.323v-.013h-3.117l-2.95 3.812H273z" transform="translate(-215.562 -284.31)"/>
                        <path id="Path_63" data-name="Path 63" class="cls-4" d="M283.551 292.88v-.04l-.031.04z" transform="translate(-223.176 -289.068)"/>
                    </g>
                </g>
                <g id="Group_45" data-name="Group 45" transform="translate(37.891 8.259)">
                    <path id="Path_64" data-name="Path 64" d="M230.967 302.238h-.417v.735a.188.188 0 0 1-.376 0v-2a.186.186 0 0 1 .186-.187h.606a.725.725 0 1 1 0 1.45zm-.417-.376h.417a.349.349 0 1 0 0-.7h-.417z" transform="translate(-230.175 -300.721)"/>
                    <path id="Path_65" data-name="Path 65" d="M236.145 302.878a.187.187 0 0 1-.119.237.292.292 0 0 1-.074.01.243.243 0 0 1-.132-.038.325.325 0 0 1-.108-.118.914.914 0 0 1-.071-.407.285.285 0 0 0-.041-.146.314.314 0 0 0-.1-.1.63.63 0 0 0-.19-.081h-.4v.735a.189.189 0 0 1-.189.186.186.186 0 0 1-.187-.186v-2a.184.184 0 0 1 .187-.187h.606a.725.725 0 0 1 .46 1.284.525.525 0 0 1 .118.125.64.64 0 0 1 .112.366.827.827 0 0 0 .014.2.182.182 0 0 1 .114.12zm-.474-1.362a.349.349 0 0 0-.349-.352h-.422v.7h.417a.348.348 0 0 0 .354-.347z" transform="translate(-232.604 -300.721)"/>
                    <path id="Path_66" data-name="Path 66" d="M241.027 301a1.244 1.244 0 0 1 0 1.714 1.11 1.11 0 0 1-.81.363 1.144 1.144 0 0 1-.83-.363 1.263 1.263 0 0 1 0-1.714 1.131 1.131 0 0 1 .83-.362 1.1 1.1 0 0 1 .81.362zm-.044.857a.875.875 0 0 0-.231-.593.729.729 0 0 0-.535-.241.737.737 0 0 0-.549.241.86.86 0 0 0-.23.593.846.846 0 0 0 .23.589.742.742 0 0 0 .549.244.734.734 0 0 0 .535-.244.861.861 0 0 0 .231-.591z" transform="translate(-235.126 -300.636)"/>
                    <path id="Path_67" data-name="Path 67" d="M245.328 301.855a1.243 1.243 0 0 1 1.243-1.219 1.268 1.268 0 0 1 .782.264.194.194 0 0 1-.237.308.846.846 0 0 0-.545-.186.9.9 0 0 0-.61.244.835.835 0 0 0-.247.59.823.823 0 0 0 .247.589.9.9 0 0 0 .61.244.85.85 0 0 0 .545-.187.205.205 0 0 1 .271.038.2.2 0 0 1-.034.271 1.266 1.266 0 0 1-.782.264 1.239 1.239 0 0 1-1.243-1.22z" transform="translate(-238.627 -300.636)"/>
                    <path id="Path_68" data-name="Path 68" d="M251.467 302.973v-2a.184.184 0 0 1 .186-.187h1.108a.188.188 0 0 1 .186.187.19.19 0 0 1-.186.19h-.918v.62h.79a.188.188 0 0 1 0 .376h-.79v.623h.918a.188.188 0 0 1 0 .376h-1.107a.186.186 0 0 1-.187-.185z" transform="translate(-242.051 -300.721)"/>
                    <path id="Path_69" data-name="Path 69" d="M255.789 302.485a.177.177 0 0 1 .247-.024 1.1 1.1 0 0 0 .647.261.727.727 0 0 0 .423-.126.3.3 0 0 0 .146-.244.193.193 0 0 0-.031-.108.323.323 0 0 0-.1-.1 1.373 1.373 0 0 0-.464-.159h-.007a1.814 1.814 0 0 1-.436-.132.731.731 0 0 1-.315-.264.524.524 0 0 1-.078-.278.626.626 0 0 1 .271-.494 1 1 0 0 1 .586-.179 1.328 1.328 0 0 1 .739.271.175.175 0 0 1 .047.241.171.171 0 0 1-.241.051.984.984 0 0 0-.545-.217.648.648 0 0 0-.379.115.269.269 0 0 0-.129.213.162.162 0 0 0 .024.1.322.322 0 0 0 .091.088 1.17 1.17 0 0 0 .424.149h.007a1.992 1.992 0 0 1 .467.143.783.783 0 0 1 .339.281.548.548 0 0 1 .082.288.655.655 0 0 1-.292.525 1.058 1.058 0 0 1-.627.193 1.461 1.461 0 0 1-.867-.339.18.18 0 0 1-.029-.255z" transform="translate(-244.442 -300.636)"/>
                    <path id="Path_70" data-name="Path 70" d="M260.817 302.485a.177.177 0 0 1 .248-.024 1.1 1.1 0 0 0 .647.261.729.729 0 0 0 .423-.126.3.3 0 0 0 .146-.244.194.194 0 0 0-.031-.108.318.318 0 0 0-.1-.1 1.373 1.373 0 0 0-.464-.159h-.007a1.812 1.812 0 0 1-.437-.132.731.731 0 0 1-.315-.264.523.523 0 0 1-.077-.278.625.625 0 0 1 .271-.494 1 1 0 0 1 .586-.179 1.327 1.327 0 0 1 .738.271.174.174 0 0 1 .047.241.171.171 0 0 1-.241.051.982.982 0 0 0-.545-.217.646.646 0 0 0-.379.115.269.269 0 0 0-.129.213.162.162 0 0 0 .023.1.328.328 0 0 0 .091.088 1.173 1.173 0 0 0 .424.149h.007a2 2 0 0 1 .467.143.784.784 0 0 1 .338.281.544.544 0 0 1 .082.288.656.656 0 0 1-.291.525 1.058 1.058 0 0 1-.627.193 1.46 1.46 0 0 1-.867-.339.18.18 0 0 1-.028-.255z" transform="translate(-247.247 -300.636)"/>
                    <path id="Path_71" data-name="Path 71" d="M266.22 305.063a.256.256 0 0 1 .254.254.253.253 0 0 1-.254.251.25.25 0 0 1-.251-.251.253.253 0 0 1 .251-.254z" transform="translate(-250.141 -303.105)"/>
                    <path id="Path_72" data-name="Path 72" d="M267.98 305.063a.256.256 0 0 1 .254.254.253.253 0 0 1-.254.251.25.25 0 0 1-.251-.251.253.253 0 0 1 .251-.254z" transform="translate(-251.122 -303.105)"/>
                    <path id="Path_73" data-name="Path 73" d="M269.74 305.063a.256.256 0 0 1 .254.254.253.253 0 0 1-.254.251.25.25 0 0 1-.251-.251.253.253 0 0 1 .251-.254z" transform="translate(-252.104 -303.105)"/>
                </g>
            </g>
        </g>
        <g id="Plant" transform="translate(-18927.65 -176.148)">
            <g id="Group_100" data-name="Group 100">
                <g id="Group_95" data-name="Group 95" transform="translate(8.268)">
                    <path id="Path_140" data-name="Path 140" class="cls-3" d="M411.625 320.23a98.637 98.637 0 0 0-.144-10.468 133.274 133.274 0 0 0-3.279-21.327c-.914-3.947-2.04-7.827-3.214-11.7-.036-.117-.222-.084-.19.038 3.629 13.663 6.606 27.763 6.4 41.965-.058 3.975-.517 7.879-.895 11.829-.01.106.164.148.188.039a59.363 59.363 0 0 0 1.134-10.376z" transform="translate(-400.353 -276.66)"/>
                    <path id="Path_141" data-name="Path 141" class="cls-3" d="M399.2 276.91s-5.5 13.952-4.266 17.232a6.291 6.291 0 0 0 3.768 3.979s-3.363 4.8-1.013 9.3 7.572 4.291 7.919 9.4c-.008.002.286-21.349-6.408-39.911z" transform="translate(-394.75 -276.799)"/>
                    <path id="Path_142" data-name="Path 142" class="cls-5" d="M409.6 311.714a.1.1 0 0 0-.005-.073 127.812 127.812 0 0 0-5.332-28.067c-.008-.027-.053-.018-.046.01q1.634 6.122 2.886 12.31a6.071 6.071 0 0 0-2.624-1.463.015.015 0 0 0-.01.028 6.95 6.95 0 0 1 2.709 1.81q.241 1.213.467 2.428a11.241 11.241 0 0 0-4.637-2.7c-.024-.009-.037.028-.013.038a11.191 11.191 0 0 1 4.747 3.184q.629 3.473 1.1 6.969a6.65 6.65 0 0 0-3.278-1.878c-.038-.009-.059.047-.02.059a6.923 6.923 0 0 1 3.324 2.129.093.093 0 0 0 .02.015q.165 1.23.311 2.463a8.464 8.464 0 0 0-2.3-1.386c-.022-.009-.034.026-.012.035a7.891 7.891 0 0 1 2.3 1.523c.009.009.019.008.029.012.092.781.183 1.563.262 2.346a11.173 11.173 0 0 0-4.662-3.329c-.036-.014-.054.041-.02.056a12.146 12.146 0 0 1 4.595 3.535.1.1 0 0 0 .116.036q.178 1.8.314 3.608c0 .016.028.018.027 0q-.1-1.848-.248-3.698z" transform="translate(-399.341 -280.508)"/>
                    <path id="Path_143" data-name="Path 143" class="cls-5" d="M403.762 303.712a6.869 6.869 0 0 0-3.3-1.029.021.021 0 0 0 0 .042 13.054 13.054 0 0 1 3.265 1.067c.042.019.073-.051.035-.08z" transform="translate(-397.922 -291.175)"/>
                    <path id="Path_144" data-name="Path 144" class="cls-5" d="M406.307 337.345a6.95 6.95 0 0 0-2.479-.848c-.03 0-.033.042 0 .047a9.291 9.291 0 0 1 2.453.86c.03.016.058-.04.026-.059z" transform="translate(-399.8 -310.036)"/>
                </g>
                <g id="Group_96" data-name="Group 96" transform="translate(19.836 17.273)">
                    <path id="Path_145" data-name="Path 145" class="cls-3" d="M435.063 316.359a37.36 37.36 0 0 0-6.362 5.561 22.84 22.84 0 0 0-4.462 7.567 56.551 56.551 0 0 0-3.324 18.1 43.941 43.941 0 0 0 .98 10.177.1.1 0 0 0 .19-.036 57.086 57.086 0 0 1 .1-17.791c.945-5.772 2.428-12.051 6.1-16.742a46.35 46.35 0 0 1 6.951-6.64c.126-.11-.036-.29-.173-.196z" transform="translate(-420.908 -316.062)"/>
                    <path id="Path_146" data-name="Path 146" class="cls-3" d="M422.753 343.087a34.225 34.225 0 0 1 4.638-5.928c2.75-2.749 5.066-4.7 5.423-6.521s-2.755-3.157-2.755-3.157 3.805.683 4.846-.914 1.544-10.846 1.544-10.846-6.923 4.943-10.148 11.871-3.548 15.495-3.548 15.495z" transform="translate(-421.937 -315.72)"/>
                    <path id="Path_147" data-name="Path 147" class="cls-5" d="M434.014 321.038c-2.913 2.861-5.844 5.909-7.56 9.668a37.082 37.082 0 0 0-1.529 3.987v.006c-.088.274-.178.546-.261.822a.1.1 0 0 0-.014.045 78.534 78.534 0 0 0-1.966 8.546c0 .019.024.028.028.009.3-1.443.628-2.9.995-4.354a.1.1 0 0 0 .042-.008 6.038 6.038 0 0 1 1.817-.461c.041 0 .038-.076 0-.074a6.8 6.8 0 0 0-1.8.328c.335-1.31.7-2.617 1.11-3.9a19.273 19.273 0 0 1 4.106-.537c.014 0 .016-.022 0-.023a15.552 15.552 0 0 0-4.037.343c.071-.221.145-.44.219-.661a20.834 20.834 0 0 1 2.732-.463c.016 0 .015-.03 0-.029a13.271 13.271 0 0 0-2.675.325 48.107 48.107 0 0 1 1.236-3.284 19.878 19.878 0 0 1 1.307-2.538 16.7 16.7 0 0 1 2.216-.395c.021 0 .019-.035 0-.037a5.963 5.963 0 0 0-2.072.2c.364-.589.747-1.164 1.156-1.722a11.711 11.711 0 0 1 4.714-.364c.027 0 .038-.041.011-.048a9.922 9.922 0 0 0-4.517.13c.164-.218.332-.434.5-.649a10.3 10.3 0 0 1 2.9-.455.016.016 0 0 0 0-.032 7.568 7.568 0 0 0-2.7.24c1.284-1.595 2.7-3.092 4.1-4.573.062-.07.012-.11-.058-.042z" transform="translate(-421.897 -318.667)"/>
                    <path id="Path_148" data-name="Path 148" class="cls-5" d="M446.349 335.252a6.32 6.32 0 0 0-1.377-.048.05.05 0 0 0 0 .1c.456.013.911-.021 1.367 0a.027.027 0 0 0 .01-.052z" transform="translate(-434.309 -326.576)"/>
                    <path id="Path_149" data-name="Path 149" class="cls-5" d="M434.165 355.631a6.247 6.247 0 0 0-2.134.428c-.017.006-.007.035.01.03.7-.168 1.417-.236 2.129-.353.058-.009.056-.104-.005-.105z" transform="translate(-427.107 -337.982)"/>
                    <path id="Path_150" data-name="Path 150" class="cls-5" d="M432.32 348.617a4.515 4.515 0 0 0-.906.082.027.027 0 0 0 0 .054 4.54 4.54 0 0 0 .908-.043.047.047 0 0 0-.002-.093z" transform="translate(-426.757 -334.068)"/>
                </g>
                <g id="Group_97" data-name="Group 97" transform="translate(0 27.228)">
                    <path id="Path_151" data-name="Path 151" class="cls-3" d="M376.667 338.581a31.413 31.413 0 0 1 6.434 3.03 19.234 19.234 0 0 1 5.36 5.092 47.6 47.6 0 0 1 6.873 13.877 37.007 37.007 0 0 1 1.559 8.463.081.081 0 0 1-.162.015 48.062 48.062 0 0 0-4.193-14.374c-2.1-4.453-4.75-9.192-8.8-12.14a39.032 39.032 0 0 0-7.16-3.768c-.133-.057-.041-.24.089-.195z" transform="translate(-376.309 -338.423)"/>
                    <path id="Path_152" data-name="Path 152" class="cls-3" d="M393.462 357.214a28.788 28.788 0 0 0-5.123-3.726c-2.861-1.589-5.186-2.635-5.9-4.024s1.5-3.192 1.5-3.192-2.922 1.432-4.133.381-3.757-8.421-3.757-8.421 6.745 2.4 10.957 7.262a39.188 39.188 0 0 1 6.456 11.72z" transform="translate(-376.052 -338.232)"/>
                    <path id="Path_153" data-name="Path 153" class="cls-5" d="M396.91 357.738c-3.374-6.332-7.875-12.06-14.043-15.841 0 0-.006 0 0 0a31.025 31.025 0 0 1 4.515 3.533 7.157 7.157 0 0 0-3.627.765.021.021 0 0 0 .019.038 9.951 9.951 0 0 1 3.731-.631.075.075 0 0 0 .042-.015q.328.311.649.631a11.458 11.458 0 0 0-1.938.257.014.014 0 0 0 0 .027 9.884 9.884 0 0 1 2.047-.169 42.331 42.331 0 0 1 3.181 3.612 3.228 3.228 0 0 0-1.355.1.026.026 0 0 0 .01.051 7.251 7.251 0 0 1 1.446-.019c.185.235.371.468.552.707a13.079 13.079 0 0 0-4.094.4.016.016 0 0 0 .006.031 16.474 16.474 0 0 1 4.2-.273c.172.228.335.463.5.694a8.88 8.88 0 0 0-2.437.279c-.03.008-.022.056.009.049a9.312 9.312 0 0 1 2.523-.2c.726 1 1.421 2.022 2.089 3.056a2.281 2.281 0 0 0-1.069.065.015.015 0 0 0 .005.029 4.653 4.653 0 0 1 1.158.055q.9 1.4 1.738 2.83c.058.083.187.023.143-.061z" transform="translate(-379.851 -340.276)"/>
                    <path id="Path_154" data-name="Path 154" class="cls-5" d="M400.275 365.823a5.218 5.218 0 0 0-1.959.24.015.015 0 0 0 .006.029 14.992 14.992 0 0 1 1.948-.2c.043-.002.051-.064.005-.069z" transform="translate(-388.464 -353.614)"/>
                    <path id="Path_155" data-name="Path 155" class="cls-5" d="M388.29 348.376a3.389 3.389 0 0 0-.9.053c-.035.006-.024.057.01.053.3-.031.59-.02.888-.029a.039.039 0 0 0 .002-.077z" transform="translate(-382.362 -343.883)"/>
                </g>
                <g id="Group_99" data-name="Group 99" transform="translate(10.885 45.754)">
                    <g id="Group_98" data-name="Group 98" transform="translate(0 1.415)">
                        <path id="Path_156" data-name="Path 156" class="cls-5" d="M415.891 403.305h-15.225l2.171-15.9.555-4.077h9.774l.555 4.077z" transform="translate(-400.666 -383.326)"/>
                        <path id="Path_157" data-name="Path 157" d="M416.458 387.4h-10.883l.555-4.077h9.77z" transform="translate(-403.404 -383.326)" style="fill:#182024"/>
                    </g>
                    <path id="Rectangle_37" data-name="Rectangle 37" class="cls-5" transform="translate(1.328)" d="M0 0h12.569v3.453H0z"/>
                </g>
            </g>
        </g>
        <g id="Background_Complete" data-name="Background Complete" transform="translate(-19076.301 -281.893)">
            <g id="Group_1" data-name="Group 1">
                <path id="Path_1" data-name="Path 1" class="cls-7" d="m211.545 55.016 2.889-4.657-1.426-.884a1.3 1.3 0 0 1-.6-1.225 7.67 7.67 0 0 0 .026-.819 1.3 1.3 0 0 1 .68-1.182l1.478-.792L212 40.624l-1.478.793a1.3 1.3 0 0 1-1.361-.088 7.66 7.66 0 0 0-.7-.432 1.3 1.3 0 0 1-.686-1.182l.053-1.677-5.477-.17-.051 1.683a1.305 1.305 0 0 1-.764 1.134q-.182.086-.36.182c-.119.064-.236.13-.351.2a1.3 1.3 0 0 1-1.361.01l-1.436-.89-2.889 4.657 1.429.887a1.3 1.3 0 0 1 .6 1.227 7.6 7.6 0 0 0-.027.816 1.3 1.3 0 0 1-.68 1.181l-1.479.793 2.591 4.831 1.479-.793a1.3 1.3 0 0 1 1.36.087 7.607 7.607 0 0 0 .695.429 1.3 1.3 0 0 1 .688 1.181l-.052 1.681 5.478.17.052-1.682a1.3 1.3 0 0 1 .761-1.129q.183-.086.363-.183t.351-.2a1.307 1.307 0 0 1 1.368-.01zm-4.638-3.459a4.489 4.489 0 1 1 1.837-6.076 4.485 4.485 0 0 1-1.837 6.076z" transform="translate(-126.059 -37.869)"/>
                <path id="Path_2" data-name="Path 2" class="cls-7" d="m47.6 195.174 3.325-1.918-.588-1.018a.912.912 0 0 1 .033-.957 5.214 5.214 0 0 0 .287-.5.912.912 0 0 1 .811-.505h1.175v-3.84h-1.176a.912.912 0 0 1-.811-.5 5.268 5.268 0 0 0-.287-.5.912.912 0 0 1-.033-.957l.588-1.018-3.324-1.918-.589 1.022a.913.913 0 0 1-.847.447q-.141-.007-.283-.007t-.283.007a.91.91 0 0 1-.843-.444l-.592-1.025-3.325 1.919.589 1.021a.911.911 0 0 1-.034.957 5.329 5.329 0 0 0-.287.495.912.912 0 0 1-.811.5h-1.176v3.84h1.175a.912.912 0 0 1 .811.5 5.272 5.272 0 0 0 .287.495.912.912 0 0 1 .034.957l-.589 1.021 3.325 1.918.589-1.021a.91.91 0 0 1 .844-.445q.141.007.285.007t.283-.007a.914.914 0 0 1 .848.447zm-1.72-3.674a3.145 3.145 0 1 1 3.146-3.143 3.142 3.142 0 0 1-3.146 3.143z" transform="translate(-39.119 -118.009)"/>
                <path id="Path_3" data-name="Path 3" class="cls-7" d="m267.9 79.6-1.919-3.325-1.018.588a.912.912 0 0 1-.957-.032 5.324 5.324 0 0 0-.5-.287.912.912 0 0 1-.5-.811v-1.175h-3.84v1.175a.912.912 0 0 1-.5.811 5.316 5.316 0 0 0-.5.287.912.912 0 0 1-.957.032l-1.018-.588-1.924 3.325 1.022.589a.913.913 0 0 1 .447.847q-.007.141-.007.283t.007.283a.91.91 0 0 1-.444.843l-1.025.593 1.918 3.325 1.021-.589a.912.912 0 0 1 .957.034 5.235 5.235 0 0 0 .5.287.913.913 0 0 1 .5.811v1.175H263v-1.176a.913.913 0 0 1 .5-.811 5.231 5.231 0 0 0 .495-.287.912.912 0 0 1 .957-.034l1.021.589 1.919-3.325-1.021-.589a.913.913 0 0 1-.445-.845c0-.094.007-.189.007-.285s0-.189-.007-.283a.914.914 0 0 1 .447-.847zm-3.671 1.718a3.145 3.145 0 1 1-3.143-3.146 3.142 3.142 0 0 1 3.141 3.147z" transform="translate(-159.126 -58.334)"/>
            </g>
            <g id="Group_2" data-name="Group 2" transform="translate(4.35 4.813)">
                <path id="Rectangle_2" data-name="Rectangle 2" class="cls-7" transform="translate(106.694 83.586)" d="M0 0h11.71v4.948H0z"/>
                <path id="Rectangle_3" data-name="Rectangle 3" class="cls-8" transform="translate(100.176 77.34)" d="M0 0h11.71v4.948H0z"/>
                <path id="Rectangle_4" data-name="Rectangle 4" class="cls-8" transform="translate(113.213 77.34)" d="M0 0h11.71v4.948H0z"/>
                <path id="Rectangle_5" data-name="Rectangle 5" class="cls-8" transform="rotate(180 9.121 2.474)" d="M0 0h11.71v4.948H0z"/>
                <path id="Rectangle_6" data-name="Rectangle 6" class="cls-7" transform="rotate(180 5.855 5.594)" d="M0 0h11.71v4.948H0z"/>
                <path id="Rectangle_7" data-name="Rectangle 7" class="cls-8" transform="rotate(180 88.731 2.477)" d="M0 0h11.71v4.948H0z"/>
                <path id="Rectangle_8" data-name="Rectangle 8" class="cls-7" transform="translate(75.524 150.376)" d="M0 0h11.71v4.948H0z"/>
                <path id="Rectangle_9" data-name="Rectangle 9" class="cls-8" transform="translate(0 125.266)" d="M0 0h11.71v4.948H0z"/>
                <path id="Rectangle_10" data-name="Rectangle 10" class="cls-8" transform="translate(69.006 144.136)" d="M0 0h11.71v4.948H0z"/>
            </g>
            <g id="Group_21" data-name="Group 21" transform="translate(51.023 47.621)">
                <g id="Group_16" data-name="Group 16" transform="translate(77.144)">
                    <g id="Group_12" data-name="Group 12" transform="translate(8.074)">
                        <ellipse id="Ellipse_1" data-name="Ellipse 1" class="cls-7" cx="20.828" cy="20.509" rx="20.828" ry="20.509" transform="rotate(-70.82 27.671 19.672)"/>
                        <ellipse id="Ellipse_2" data-name="Ellipse 2" class="cls-9" cx="16.247" cy="15.998" rx="16.247" ry="15.998" transform="rotate(-70.79 28.576 14.196)"/>
                        <path id="Path_20" data-name="Path 20" class="cls-7" d="M404.249 190a11.764 11.764 0 0 1-11.477 11.882 11.487 11.487 0 0 1-11.63-11.5A11.764 11.764 0 0 1 392.62 178.5a11.487 11.487 0 0 1 11.629 11.5z" transform="translate(-366.483 -163.783)"/>
                        <path id="Path_21" data-name="Path 21" class="cls-9" d="M405.431 195.848a7.162 7.162 0 0 1-6.988 7.234 6.993 6.993 0 0 1-7.08-7 7.162 7.162 0 0 1 6.987-7.234 6.993 6.993 0 0 1 7.081 7z" transform="translate(-372.184 -169.554)"/>
                        <path id="Path_22" data-name="Path 22" class="cls-7" d="M406.451 200.9a3.188 3.188 0 0 1-3.111 3.22 3.113 3.113 0 0 1-3.151-3.12 3.188 3.188 0 0 1 3.111-3.22 3.113 3.113 0 0 1 3.151 3.12z" transform="translate(-377.107 -174.537)"/>
                    </g>
                    <g id="Group_15" data-name="Group 15" transform="translate(0 7.663)">
                        <path id="Rectangle_25" data-name="Rectangle 25" class="cls-5" transform="rotate(-62.401 4.537 -1.771)" d="M0 0h.354v33.985H0z"/>
                        <g id="Group_13" data-name="Group 13">
                            <path id="Path_23" data-name="Path 23" class="cls-5" d="m332.468 168.369.078-.031 1.38-.426-2.718-1.421-1.473.448z" transform="translate(-329.734 -164.749)"/>
                            <path id="Path_24" data-name="Path 24" class="cls-5" d="m332.324 162.551.49 1.433 2.718 1.421a6.607 6.607 0 0 1-.482-1.429z" transform="translate(-331.179 -162.551)"/>
                        </g>
                        <g id="Group_14" data-name="Group 14" transform="translate(32.866 17.201)">
                            <path id="Path_25" data-name="Path 25" class="cls-5" d="m406.135 202.645-.567 1.019-1.511-.129.992-.812.1-1.274z" transform="translate(-404.056 -201.449)"/>
                        </g>
                    </g>
                </g>
                <g id="Group_20" data-name="Group 20" transform="translate(0 63.694)">
                    <path id="Path_26" data-name="Path 26" class="cls-7" d="M167.094 293.277a4.906 4.906 0 0 1-1.5 4.517l-5.139.957a4.919 4.919 0 1 1 6.644-5.474z" transform="translate(-156.428 -289.257)"/>
                    <g id="Group_17" data-name="Group 17" transform="translate(1.469 8.059)">
                        <path id="Rectangle_26" data-name="Rectangle 26" class="cls-7" transform="rotate(-10.553 10.34 .955)" d="M0 0h10.431v1.504H0z"/>
                    </g>
                    <g id="Group_18" data-name="Group 18" transform="translate(0 27.435)">
                        <path id="Rectangle_27" data-name="Rectangle 27" class="cls-10" transform="rotate(-10.58 20.967 1.948)" d="M0 0h21.128v1.504H0z"/>
                    </g>
                    <g id="Group_19" data-name="Group 19" transform="translate(.772 31.58)">
                        <path id="Rectangle_28" data-name="Rectangle 28" class="cls-10" transform="rotate(-10.58 20.967 1.948)" d="M0 0h21.128v1.504H0z"/>
                    </g>
                    <path id="Rectangle_29" data-name="Rectangle 29" class="cls-7" transform="rotate(-10.554 177.214 10.64)" d="M0 0h19.555v2.713H0z"/>
                    <path id="Rectangle_30" data-name="Rectangle 30" class="cls-10" transform="rotate(-10.58 62.421 -8.89)" d="M0 0h8.51v1.504H0z"/>
                    <path id="Path_27" data-name="Path 27" class="cls-7" d="m176.544 331.491-16.993 3.166s3.153-4.6 3.1-9.389c-.054-4.04-.648-9.067-.648-9.067l5.608-1.045s1.256 4.9 2.667 8.691c1.669 4.491 6.266 7.644 6.266 7.644z" transform="translate(-157.663 -303.703)"/>
                </g>
            </g>
        </g>
        <g id="Lines" transform="translate(-19063.209 -282)">
            <g id="Group_26" data-name="Group 26">
                <g id="Group_23" data-name="Group 23">
                    <path id="Path_29" data-name="Path 29" class="cls-11" d="M68.722 75.245a29.874 29.874 0 0 1 57.156-12.166" transform="translate(-68.722 -41.949)"/>
                    <path id="Path_30" data-name="Path 30" class="cls-11" d="M79.224 48.967a31.1 31.1 0 0 1 24.045-11.34" transform="translate(-74.58 -37.627)"/>
                </g>
                <g id="Group_24" data-name="Group 24" transform="translate(135.466 6.084)">
                    <path id="Path_31" data-name="Path 31" class="cls-11" d="M375.843 109.7a29.874 29.874 0 0 0 3.734-58.317" transform="translate(-375.843 -51.385)"/>
                    <path id="Path_32" data-name="Path 32" class="cls-11" d="M427.652 83.44a31.1 31.1 0 0 0-11.138-24.14" transform="translate(-398.529 -55.8)"/>
                </g>
                <g id="Group_25" data-name="Group 25" transform="translate(46.232 67.211)">
                    <path id="Path_33" data-name="Path 33" class="cls-11" d="M242.124 193.193a35.055 35.055 0 0 1-68.479-3.576" transform="translate(-173.645 -189.617)"/>
                    <path id="Path_34" data-name="Path 34" class="cls-11" d="M262.79 250.789a36.491 36.491 0 0 1-30.7 5.547" transform="translate(-206.246 -223.738)"/>
                </g>
            </g>
        </g>
        <g id="Gears" transform="translate(-19058.406 -272.226)">
            <g id="Group_42" data-name="Group 42">
                <g id="Group_30" data-name="Group 30" transform="translate(44.693 19.377)">
                    <g id="Group_29" data-name="Group 29">
                        <g id="Group_28" data-name="Group 28">
                            <g id="Group_27" data-name="Group 27">
                                <path id="Path_35" data-name="Path 35" class="cls-3" d="M236.774 136.939a24.992 24.992 0 0 1-1.91 7.221l4.483 3.218-2.32 4.016-5.014-2.268a25.363 25.363 0 0 1-5.263 5.3l2.272 5.032-4.016 2.315-3.21-4.465a24.83 24.83 0 0 1-7.208 1.949l-.55 5.494H209.4l-.545-5.472a25.043 25.043 0 0 1-7.221-1.91l-3.218 4.482-4.016-2.32 2.263-5.019a25.235 25.235 0 0 1-5.294-5.259l-5.032 2.272-2.319-4.016 4.469-3.209a24.966 24.966 0 0 1-1.954-7.208l-5.494-.549v-4.635l5.477-.545a25.053 25.053 0 0 1 1.91-7.225l-4.483-3.218 2.32-4.012 5.014 2.263a25.371 25.371 0 0 1 5.263-5.3l-2.272-5.027 4.016-2.32 3.205 4.465a25.057 25.057 0 0 1 7.216-1.953l.545-5.49h4.635l.545 5.477a24.883 24.883 0 0 1 7.221 1.905l3.222-4.478 4.011 2.32-2.263 5.015a25.338 25.338 0 0 1 5.293 5.263l5.032-2.272 2.319 4.016L234.8 124a24.83 24.83 0 0 1 1.949 7.2l5.5.554v4.635z" transform="translate(-181.044 -103.547)"/>
                            </g>
                        </g>
                    </g>
                </g>
                <g id="Group_35" data-name="Group 35">
                    <g id="Group_31" data-name="Group 31">
                        <path id="Path_36" data-name="Path 36" class="cls-10" d="M124.648 89.03a20.346 20.346 0 0 1-3.024 7.428l3.276 4.042-5.11 4.842-3.631-3.276a20.628 20.628 0 0 1-7.64 3.251l-.5 4.837-7.036-.185-.237-4.58a20.374 20.374 0 0 1-7.912-3.256l-3.585 2.905L84.4 99.93l2.972-3.292a20.45 20.45 0 0 1-3.219-8.01l-4.564-.479.186-7.037 4.525-.232a20.322 20.322 0 0 1 3.436-7.758l-3.036-3.74 5.1-4.842 3.585 3.235a20.448 20.448 0 0 1 7.66-2.937l.536-5.11 7.037.185.263 5.131a20.324 20.324 0 0 1 7.284 3.188l4.183-3.395 4.842 5.11-3.539 3.925a20.464 20.464 0 0 1 2.977 7.289l5.373.561-.185 7.037z" transform="translate(-79.584 -59.729)"/>
                    </g>
                    <g id="Group_34" data-name="Group 34" transform="translate(17.679 14.341)">
                        <path id="Path_37" data-name="Path 37" class="cls-9" d="m129.568 110.038-5.218-.048-.017-.088a21.676 21.676 0 0 0-.617-2.453 3.708 3.708 0 0 0-1-1.152 8.433 8.433 0 0 1-3.116-5.91 7.95 7.95 0 0 1 2.052-5.882 7.409 7.409 0 0 1 10.906.1 7.961 7.961 0 0 1 1.948 5.922 8.444 8.444 0 0 1-3.227 5.853 3.715 3.715 0 0 0-1.025 1.133 22.5 22.5 0 0 0-.662 2.441zm-5.036-.268 4.859.045a20.626 20.626 0 0 1 .654-2.39 3.833 3.833 0 0 1 1.084-1.215 8.148 8.148 0 0 0 3.154-5.714 7.731 7.731 0 0 0-1.9-5.749 7.188 7.188 0 0 0-10.575-.094 7.72 7.72 0 0 0-2 5.709 8.14 8.14 0 0 0 3.045 5.77 3.824 3.824 0 0 1 1.061 1.236 20.023 20.023 0 0 1 .618 2.402z" transform="translate(-119.562 -92.16)"/>
                        <g id="Group_32" data-name="Group 32" transform="translate(4.654 9.181)">
                            <path id="Rectangle_31" data-name="Rectangle 31" class="cls-9" transform="rotate(-10.039 3.194 .28)" d="M0 0h.33v8.153H0z"/>
                            <path id="Rectangle_32" data-name="Rectangle 32" class="cls-9" transform="rotate(-78.87 7.149 1.906)" d="M0 0h8.153v.33H0z"/>
                            <path id="Path_38" data-name="Path 38" class="cls-9" d="M133.219 116.161c-.473 0-.877-.43-1.161-.961a.611.611 0 0 1-.431.221c-.77-.007-1.061-1.58-1.073-1.646l.162-.029c.075.419.386 1.506.912 1.511a.5.5 0 0 0 .35-.214 3.547 3.547 0 0 1-.36-1.421c0-.447.177-.7.474-.7a.473.473 0 0 1 .429.249 2.079 2.079 0 0 1-.252 1.742 2.323 2.323 0 0 1-.1.155c.266.517.644.926 1.052.93.37 0 .7-.33.937-.777a2.1 2.1 0 0 1-.448-1.358c.005-.571.226-.923.575-.921.285 0 .446.283.441.771a3.763 3.763 0 0 1-.374 1.479.709.709 0 0 0 .483.2c.45 0 .862-1.085.983-1.5l.158.046c-.048.167-.487 1.629-1.143 1.624a.857.857 0 0 1-.557-.218 1.322 1.322 0 0 1-1.057.817zm1.064-3.055c-.3 0-.406.406-.409.757a2.068 2.068 0 0 0 .361 1.2 3.489 3.489 0 0 0 .326-1.352c0-.181-.022-.6-.278-.6zm-2.191-.02c-.251 0-.306.291-.308.536a3.249 3.249 0 0 0 .3 1.274l.042-.067a1.969 1.969 0 0 0 .251-1.577.307.307 0 0 0-.287-.166z" transform="translate(-130.347 -112.921)"/>
                        </g>
                        <g id="Group_33" data-name="Group 33" transform="translate(4.144 17.387)">
                            <path id="Path_39" data-name="Path 39" class="cls-9" d="m135.43 132.974-6.438-.059.013-1.436 6.438.059zm-6.214-.278 6 .055.009-.994-6-.055z" transform="translate(-128.966 -131.479)"/>
                            <path id="Path_40" data-name="Path 40" class="cls-9" d="m135.4 136.166-6.437-.059.013-1.436 6.438.059zm-6.214-.278 6 .055.009-.994-6-.055z" transform="translate(-128.95 -133.259)"/>
                            <path id="Path_41" data-name="Path 41" class="cls-9" d="m135.371 139.358-6.437-.059.013-1.436 6.437.06zm-6.214-.278 6 .055.009-.994-6-.055z" transform="translate(-128.934 -135.039)"/>
                        </g>
                    </g>
                </g>
                <g id="Group_38" data-name="Group 38" transform="translate(63.838 36.426)">
                    <path id="Path_42" data-name="Path 42" class="cls-9" d="m267.526 147.715-4.367-3.723.055-.082a4.321 4.321 0 0 1 2.556-1.786 2.606 2.606 0 0 1 2.081.7 2.67 2.67 0 0 1 1.036 1.963 4.4 4.4 0 0 1-1.289 2.859zm-4.071-3.762 4.057 3.46a4.133 4.133 0 0 0 1.154-2.621 2.459 2.459 0 0 0-.958-1.8 2.39 2.39 0 0 0-1.907-.647 4.046 4.046 0 0 0-2.346 1.608z" transform="translate(-245.992 -142.102)"/>
                    <path id="Path_43" data-name="Path 43" class="cls-9" d="m230.147 169.733-.171-.141 16.624-20.111-4.046-3.45-16.621 20.108-.171-.141 16.764-20.281 4.383 3.737-.07.084z" transform="translate(-225.132 -144.118)"/>
                    <path id="Path_44" data-name="Path 44" class="cls-9" d="m266.347 150.1-5.09-4.34.8-.973 5.09 4.34zm-4.781-4.367 4.753 4.053.523-.632-4.753-4.053z" transform="translate(-244.931 -143.602)"/>
                    <path id="Path_45" data-name="Path 45" class="cls-9" d="m264.687 152.111-5.089-4.34.8-.973 5.09 4.34zm-4.78-4.367 4.753 4.053.523-.632-4.753-4.053z" transform="translate(-244.005 -144.721)"/>
                    <g id="Group_36" data-name="Group 36" transform="translate(0 21.79)">
                        <path id="Path_46" data-name="Path 46" class="cls-9" d="m224.337 196.738.648-5.206h.092c.061-.009.507-.084.8-.133l.129-.022v.83l.814-.134v.83l.814-.135v.829l.8-.142.01.838.679-.12.126-.02.013 1.048zm.845-5-.582 4.685 1-.309 3.444-1.077-.008-.625-.677.12-.128.023-.01-.838-.807.142v-.831l-.814.134v-.83l-.814.134v-.829z" transform="translate(-224.337 -191.378)"/>
                        <path id="Path_47" data-name="Path 47" class="cls-9" d="m224.517 200.525.267-2.093 1.732 1.477zm.434-1.659-.172 1.347 1.287-.4z" transform="translate(-224.437 -195.313)"/>
                    </g>
                    <g id="Group_37" data-name="Group 37" transform="translate(2.901 5.011)">
                        <path id="Path_48" data-name="Path 48" class="cls-9" d="M230.9 170.122c1.055-1.469 2.161-2.9 3.273-4.317s2.265-2.81 3.4-4.216c1.167-1.376 2.315-2.768 3.5-4.128s2.38-2.715 3.625-4.026c-1.054 1.469-2.16 2.9-3.272 4.317s-2.265 2.81-3.4 4.216c-1.169 1.375-2.315 2.768-3.5 4.128s-2.385 2.713-3.626 4.026z" transform="translate(-230.897 -153.434)"/>
                        <path id="Path_49" data-name="Path 49" class="cls-9" d="M235.231 173.715c1.055-1.469 2.16-2.9 3.273-4.317s2.265-2.81 3.4-4.216c1.167-1.376 2.315-2.768 3.5-4.128s2.38-2.714 3.625-4.026c-1.054 1.469-2.16 2.9-3.272 4.318s-2.264 2.81-3.4 4.216c-1.169 1.375-2.315 2.768-3.5 4.128s-2.382 2.71-3.626 4.025z" transform="translate(-233.314 -155.438)"/>
                    </g>
                </g>
                <g id="Group_41" data-name="Group 41" transform="translate(99.952)">
                    <g id="Group_39" data-name="Group 39">
                        <path id="Path_50" data-name="Path 50" class="cls-10" d="M351.458 89.03a20.339 20.339 0 0 1-3.024 7.428l3.271 4.039-5.11 4.842-3.632-3.276a20.628 20.628 0 0 1-7.64 3.251l-.5 4.837-7.037-.185-.237-4.58a20.377 20.377 0 0 1-7.912-3.256l-3.585 2.905-4.842-5.105 2.973-3.292a20.451 20.451 0 0 1-3.22-8.01l-4.564-.479.185-7.037 4.528-.232a20.308 20.308 0 0 1 3.436-7.758l-3.034-3.74 5.105-4.842 3.585 3.235a20.45 20.45 0 0 1 7.66-2.937l.535-5.11 7.037.185.263 5.131a20.321 20.321 0 0 1 7.284 3.188l4.183-3.395L352 69.949l-3.539 3.925a20.456 20.456 0 0 1 2.977 7.289l5.373.561-.185 7.037z" transform="translate(-306.394 -59.729)"/>
                    </g>
                    <g id="Group_40" data-name="Group 40" transform="translate(18.369 16.352)">
                        <path id="Path_51" data-name="Path 51" class="cls-9" d="M349.011 117.527h-1.079V96.706h1.079zm-.858-.221h.637V96.927h-.637z" transform="translate(-347.932 -96.706)"/>
                        <path id="Path_52" data-name="Path 52" class="cls-9" d="M364.647 107.818h-14.775V97.765h14.775l-5.039 5.027zm-14.554-.221h14.019l-4.817-4.805 4.817-4.805h-14.019z" transform="translate(-349.014 -97.297)"/>
                    </g>
                </g>
            </g>
        </g>
    </g>
</svg>
