<svg xmlns="http://www.w3.org/2000/svg" width="24" height="24" viewBox="0 0 24 24">
    <g>
        <path fill="#fefefe" d="M1399.9 41.5a.912.912 0 0 0-.351.067.912.912 0 0 0-.494.506.958.958 0 0 0 .2 1.025.989.989 0 0 0 .3.2.912.912 0 0 0 .351.067h16.184a.913.913 0 0 0 .351-.067.912.912 0 0 0 .494-.506.958.958 0 0 0-.2-1.025.989.989 0 0 0-.3-.2.913.913 0 0 0-.351-.067zm0 6.067a.912.912 0 0 0-.351.067.912.912 0 0 0-.494.506.958.958 0 0 0 .2 1.025.989.989 0 0 0 .3.2.912.912 0 0 0 .351.067h16.184a.913.913 0 0 0 .351-.067.912.912 0 0 0 .494-.506.958.958 0 0 0-.2-1.025.989.989 0 0 0-.3-.2.913.913 0 0 0-.351-.067zm0 6.067a.912.912 0 0 0-.351.067.912.912 0 0 0-.494.506.958.958 0 0 0 .2 1.025.989.989 0 0 0 .3.2.912.912 0 0 0 .351.067h16.184a.913.913 0 0 0 .351-.067.912.912 0 0 0 .494-.506.958.958 0 0 0-.2-1.025.989.989 0 0 0-.3-.2.912.912 0 0 0-.351-.067z" transform="translate(-1397 -37) translate(1.01 0.5)"/>
        <path fill="none" d="M0 0H24V24H0z" transform="translate(-1397 -37) translate(1397 37)"/>
    </g>
</svg>
