<svg xmlns="http://www.w3.org/2000/svg" id="Layer_2" width="117" height="27.15" viewBox="0 0 117 27.15">
    <defs>
        <style>
            .cls-1{fill:#1c1c1c}
        </style>
    </defs>
    <g id="Layer_1" transform="translate(0 0)">
        <path id="Path_51" d="M0 50.666c.17-.035.341-.079.511-.125s.343-.095.514-.152a20.924 20.924 0 0 0 2.862-.91A2.963 2.963 0 0 0 5.266 48.4a2.8 2.8 0 0 0 .257-1.9l-1.14-7.92 3.071-.469 1.142 8a6.169 6.169 0 0 1-.385 3.632 5.341 5.341 0 0 1-2.206 2.291 18.19 18.19 0 0 1-4.051 1.587 4.714 4.714 0 0 1-.554.179c-.19.046-.38.1-.558.152zM3.672 32.11H6.86v3.012H3.672z" class="cls-1" transform="translate(0 -28.018)"/>
        <path id="Path_52" d="M48.618 35.867a7.061 7.061 0 0 1-3.147-.582 3.521 3.521 0 0 1-1.695-1.877 10.845 10.845 0 0 1-.653-3.521l-.513-12.714L45.743 17l.511 12.868v.4a5.252 5.252 0 0 0 .229 1.463.961.961 0 0 0 .625.593 5.208 5.208 0 0 0 1.51.154h.282v3.386z" class="cls-1" transform="translate(-30.713 -17)"/>
        <path id="Path_53" d="M64.12 53.077h8.169a2.227 2.227 0 0 0 1.675-.458 1.8 1.8 0 0 0 .4-1.227v-3.424H77.3v3.423a5.632 5.632 0 0 1-.542 2.4 4.678 4.678 0 0 1-4.467 2.679H64.12zm15.116 3.4a4.6 4.6 0 0 1-2.6-.748 4.754 4.754 0 0 1-1.695-1.931 5.212 5.212 0 0 1-.539-2.4h2.9a1.5 1.5 0 0 0 .466 1.227 2.106 2.106 0 0 0 1.466.458h.279a1.931 1.931 0 0 0 1.466-.512 1.855 1.855 0 0 0 .355-1.173v-3.43h2.9v3.423a5.783 5.783 0 0 1-.525 2.4 4.556 4.556 0 0 1-1.675 1.918 4.964 4.964 0 0 1-2.798.764zm6.98 0a4.645 4.645 0 0 1-4.328-2.6 5.28 5.28 0 0 1-.542-2.484h2.9a1.519 1.519 0 0 0 .455 1.257 2.242 2.242 0 0 0 1.51.428 3.091 3.091 0 0 0 1.323-.249 1.34 1.34 0 0 0 .7-.869 3.271 3.271 0 0 0-.128-1.728l-1.128-4.114 2.987-.856 1.139 4.114a6.36 6.36 0 0 1 .087 3.7 4.541 4.541 0 0 1-1.851 2.511 5.536 5.536 0 0 1-3.133.886z" class="cls-1" transform="translate(-46.218 -37.606)"/>
        <path id="Path_54" d="M184.238 56.626q-3.244 0-4.9-.057a20.249 20.249 0 0 1-2.546-.206 7.037 7.037 0 0 1-1.695-.512h-.056a4.57 4.57 0 0 1-2.549-2.513 5.957 5.957 0 0 1-.1-3.892l1.053-3.976 3.018.856-1.117 4.114a2.554 2.554 0 0 0-.028 1.463 1.638 1.638 0 0 0 .966.856h.059a3.986 3.986 0 0 0 1.081.29 21.067 21.067 0 0 0 2.234.138q1.583.041 4.571.043zm-3.758 2.622h4.554v2.486h-4.554zm2.675 2.9h2.645l.031 2.763h-2.678zm.74-2.9h4.526l-.028 2.486h-4.467zm.343-6.018h6.86a2.815 2.815 0 0 0 1.692-.374 1.232 1.232 0 0 0 .385-1.173l-.313-3.4 3.13-.3.313 3.4a4.876 4.876 0 0 1-.469 2.733A4.324 4.324 0 0 1 194 55.963a6.011 6.011 0 0 1-2.9.664h-6.86zm14.147 3.4a5.142 5.142 0 0 1-3.688-1.257 5.5 5.5 0 0 1-1.522-3.686l3.13-.3a3.1 3.1 0 0 0 .257 1.129 1.138 1.138 0 0 0 .611.542 3.389 3.389 0 0 0 1.212.168z" class="cls-1" transform="translate(-124.064 -37.759)"/>
        <path id="Path_55" d="M265.17 53.084h11.1a4.653 4.653 0 0 0 1.675-.249 1.374 1.374 0 0 0 .857-.867 3.136 3.136 0 0 0-.073-1.728l-1.117-4.114 2.987-.856 1.167 4.282a5.975 5.975 0 0 1-.014 3.643 4.566 4.566 0 0 1-2.049 2.438 6.668 6.668 0 0 1-3.429.859H265.17zm5.863 6.129h4.554l.028 2.513h-4.582zm3.443 0h4.5v2.505h-4.5z" class="cls-1" transform="translate(-191.134 -37.613)"/>
        <path id="Path_56" d="M343.146 35.867a7.042 7.042 0 0 1-3.146-.582 3.51 3.51 0 0 1-1.695-1.877 10.786 10.786 0 0 1-.656-3.521l-.511-12.7L340.27 17l.514 12.868v.4a5.265 5.265 0 0 0 .226 1.463.964.964 0 0 0 .628.593 5.174 5.174 0 0 0 1.508.154h.279v3.386z" class="cls-1" transform="translate(-243.01 -17)"/>
        <path id="Path_57" d="M358.65 53.077h11.1a4.653 4.653 0 0 0 1.675-.249 1.372 1.372 0 0 0 .838-.869 3.148 3.148 0 0 0-.07-1.728l-1.117-4.114 2.99-.856 1.167 4.282a6.054 6.054 0 0 1 0 3.643 4.59 4.59 0 0 1-2.049 2.438 6.685 6.685 0 0 1-3.431.859h-11.1zm6.176 5.959h4.554v2.484h-4.554zm2.678 2.9h2.647l.028 2.763H367.5zm.737-2.893h4.526l-.028 2.484h-4.467z" class="cls-1" transform="translate(-258.514 -37.606)"/>
    </g>
</svg>
